<svg width="214" height="64" viewBox="0 0 214 64" fill="none" xmlns="http://www.w3.org/2000/svg">
<path d="M85.5389 38.8345L90.7762 30.2754L98.1857 44.5828L85.5389 38.8345ZM203.192 7.15336L183.903 28.1037L162.186 1.9161L137.914 25.5492L124.246 2.8101L112.238 9.32567L126.929 35.5133L115.687 47.138L98.5687 12.6468L88.4771 8.17546L72.5091 33.2136L47.854 22.611L43.8943 45.6049L25.3711 28.1037L56.4131 11.8802L50.2811 0L0.844055 25.0381L34.4413 55.1861C34.4413 55.1861 55.391 59.7848 55.008 59.7848C54.6244 59.7848 57.8181 42.9222 57.8181 42.9222L64.4611 44.9664L70.976 59.7848L76.9798 50.8428L98.5687 59.7848H121.819L161.036 22.4829L173.555 38.707L160.014 54.675L171.256 64L213.156 16.2235L203.192 7.15336Z" fill="#DA3F8E"/>
</svg>
